HIERARCHY
ROOT Hips
{
	OFFSET -3.958830 18.904000 13.208200
	CHANNELS 6 Xposition Yposition Zposition Zrotation Yrotation Xrotation 
	JOINT LHipJoint
	{
		OFFSET 0.000000 0.000000 0.000000
		CHANNELS 3 Zrotation Yrotation Xrotation
		JOINT LeftUpLeg
		{
			OFFSET 1.800000 -1.400000 0.085000
			CHANNELS 3 Zrotation Yrotation Xrotation
			JOINT LeftLeg
			{
				OFFSET 2.215000 -6.000000 0.000000
				CHANNELS 3 Zrotation Yrotation Xrotation
				JOINT LeftFoot
				{
					OFFSET 2.500000 -6.900000 0.000000
					CHANNELS 3 Zrotation Yrotation Xrotation
					JOINT LeftToeBase
					{
						OFFSET 0.200000 -0.500000 1.950000
						CHANNELS 3 Zrotation Yrotation Xrotation
						End Site
						{
							OFFSET 0.000000 0.000000 0.000000
						}
					}
				}
			}
		}
	}
	JOINT RHipJoint
	{
		OFFSET 0.000000 0.000000 0.000000
		CHANNELS 3 Zrotation Yrotation Xrotation
		JOINT RightUpLeg
		{
			OFFSET -1.800000 -1.400000 0.085000
			CHANNELS 3 Zrotation Yrotation Xrotation
			JOINT RightLeg
			{
				OFFSET -2.215000 -6.000000 0.000000
				CHANNELS 3 Zrotation Yrotation Xrotation
				JOINT RightFoot
				{
					OFFSET -2.500000 -6.900000 0.000000
					CHANNELS 3 Zrotation Yrotation Xrotation
					JOINT RightToeBase
					{
						OFFSET -0.200000 -0.500000 1.950000
						CHANNELS 3 Zrotation Yrotation Xrotation
						End Site
						{
							OFFSET 0.000000 0.000000 0.000000
						}
					}
				}
			}
		}
	}
	JOINT LowerBack
	{
		OFFSET 0.000000 0.000000 0.000000
		CHANNELS 3 Zrotation Yrotation Xrotation
		JOINT Spine
		{
			OFFSET -0.087000 1.940000 -0.288900
			CHANNELS 3 Zrotation Yrotation Xrotation
			JOINT Spine1
			{
				OFFSET 0.000000 1.950000 0.060000
				CHANNELS 3 Zrotation Yrotation Xrotation
				JOINT Neck
				{
					OFFSET 0.000000 0.000000 0.000000
					CHANNELS 3 Zrotation Yrotation Xrotation
					JOINT Neck1
					{
						OFFSET 0.000000 1.600000 0.340000
						CHANNELS 3 Zrotation Yrotation Xrotation
						JOINT Head
						{
							OFFSET 0.000000 1.667000 -0.240000
							CHANNELS 3 Zrotation Yrotation Xrotation
							End Site
							{
								OFFSET 0.000000 0.000000 0.000000
							}
						}
					}
				}
				JOINT LeftShoulder
				{
					OFFSET 0.000000 0.000000 0.000000
					CHANNELS 3 Zrotation Yrotation Xrotation
					JOINT LeftArm
					{
						OFFSET 2.700000 1.550000 -0.730000
						CHANNELS 3 Zrotation Yrotation Xrotation
						JOINT LeftForeArm
						{
							OFFSET 5.450000 0.000000 0.000000
							CHANNELS 3 Zrotation Yrotation Xrotation
							JOINT LeftHand
							{
								OFFSET 3.450000 0.000000 0.000000
								CHANNELS 3 Zrotation Yrotation Xrotation
								JOINT LeftHandIndex1
								{
									OFFSET 0.750000 0.000000 0.000000
									CHANNELS 3 Zrotation Yrotation Xrotation
									End Site
									{
										OFFSET 0.000000 0.000000 0.000000
									}
								}
							}
						}
					}
				}
				JOINT RightShoulder
				{
					OFFSET 0.000000 0.000000 0.000000
					CHANNELS 3 Zrotation Yrotation Xrotation
					JOINT RightArm
					{
						OFFSET -2.700000 1.550000 -0.730000
						CHANNELS 3 Zrotation Yrotation Xrotation
						JOINT RightForeArm
						{
							OFFSET -5.450000 0.000000 0.000000
							CHANNELS 3 Zrotation Yrotation Xrotation
							JOINT RightHand
							{
								OFFSET -3.450000 0.000000 0.000000
								CHANNELS 3 Zrotation Yrotation Xrotation
								JOINT RightHandIndex1
								{
									OFFSET -0.750000 0.000000 0.000000
									CHANNELS 3 Zrotation Yrotation Xrotation
									End Site
									{
										OFFSET 0.000000 0.000000 0.000000
									}
								}
							}
						}
					}
				}
			}
		}
	}
}
MOTION
Frames: 12
Frame Time: 0.016667
0.076380 17.255010 -10.380560 4.283311 16.759054 4.982307 -14.210139 11.607532 3.165051 9.532031 -2.303102 -27.681242 -8.030758 7.302868 22.220241 -0.455943 4.221251 2.869907 0.433110 0.204940 0.329870 19.073486 -12.408243 2.997946 -12.268023 5.450735 -21.008501 8.577272 -6.964948 23.864002 -0.350255 -4.025764 2.775095 0.025960 -0.094260 0.186610 -6.574366 4.142300 -7.563082 38.764815 -9.087429 15.575664 -30.314367 -3.660288 9.980068 9.587463 -6.489195 -6.231124 -5.563546 3.898801 56.097095 -2.948950 -4.518460 -19.867100 -25.048615 3.590141 -0.612090 -51.058460 6.789972 -8.759705 -11.816668 -3.331325 -1.798240 -3.356216 2.630123 0.642410 -0.252410 0.207890 0.012600 4.950874 3.602219 8.290270 88.222741 39.601820 7.376043 -20.586679 69.308322 -20.977621 2.135229 -1.119071 -0.002900 0.124840 0.008840 -0.104050 
0.085530 17.239470 -10.392560 4.332549 17.366862 4.820633 -14.211892 11.673559 3.075559 8.994224 -2.329238 -26.962442 -7.081568 6.649397 20.968487 -0.500261 3.880453 2.988979 0.455500 0.236340 0.354780 19.059316 -12.439314 3.025617 -12.623477 5.452921 -20.944294 8.959669 -7.117045 24.071873 -0.363743 -4.106326 2.730507 0.043800 -0.115890 0.193680 -6.581169 4.113206 -7.537609 38.705632 -9.244614 15.534127 -30.004806 -3.787524 10.549920 9.811071 -5.950236 -6.372986 -4.476095 3.366504 56.416025 -3.328560 -4.453170 -19.792070 -25.663524 2.567704 -0.245790 -50.275174 6.681394 -8.504447 -12.041880 -2.959099 -1.828117 -3.345419 2.654966 0.629120 -0.252220 0.217140 0.003930 5.327302 4.067133 8.081978 86.786346 40.797641 7.310524 -24.315687 67.483836 -22.623606 2.116130 -1.055420 0.014290 0.108350 -0.003000 -0.106960 
0.104830 17.213230 -10.422900 4.009238 18.338279 4.362660 -14.221740 11.788450 2.925489 8.561858 -2.132528 -25.118892 -6.028920 5.525902 17.236515 -0.569575 3.286689 3.256219 0.482760 0.281250 0.374460 19.029450 -12.460446 3.076669 -12.711213 5.578356 -20.687690 9.615462 -7.303901 24.413872 -0.398674 -4.214454 2.702452 0.074680 -0.095320 0.178000 -6.568266 4.011740 -7.505941 38.956915 -9.812589 16.013643 -28.919906 -4.153383 11.477657 9.858489 -5.824333 -6.678792 -4.354624 3.063351 56.320851 -3.391800 -4.754660 -20.201440 -25.996415 0.950287 0.399386 -49.464621 6.499919 -8.322444 -14.066279 -2.733427 -1.953228 -3.318632 2.649244 0.617340 -0.245530 0.222810 0.031540 5.904174 5.526085 7.496020 82.728978 43.732626 7.414136 -30.634152 63.005155 -24.488575 2.068310 -0.921203 0.007960 0.157540 -0.029290 -0.094240 
0.127470 17.189080 -10.469710 3.650737 18.632262 4.201213 -14.234366 11.876600 2.855777 7.777249 -2.025018 -24.213729 -4.464370 4.622790 14.771377 -0.614841 2.831729 3.458394 0.513420 0.336050 0.392680 18.996619 -12.471793 3.158184 -12.748207 5.937124 -21.171282 9.844210 -7.373175 25.188236 -0.415919 -4.296225 2.685478 0.110940 -0.088330 0.163330 -6.528132 3.957735 -7.535479 38.771243 -10.076821 17.312857 -27.439442 -4.088422 11.954379 10.056387 -5.249129 -6.956436 -3.017544 2.412572 55.325716 -3.863200 -4.480080 -20.320790 -25.939705 -0.441641 1.089708 -48.073279 6.560999 -8.407306 -17.986939 -3.309199 -2.101846 -3.266896 2.691966 0.593600 -0.231840 0.224260 0.058000 5.817293 6.881877 6.828272 77.702937 46.750434 7.617759 -36.509097 57.147220 -25.344281 2.017663 -0.862101 0.008020 0.182220 -0.062870 -0.087500 
0.129650 17.141120 -10.519180 3.722281 18.348769 4.452617 -14.245794 11.886830 2.841438 7.045429 -1.942711 -23.417181 -3.774727 4.101544 12.685770 -0.634053 2.564111 3.571792 0.529820 0.373590 0.400270 18.974185 -12.455693 3.280097 -13.007499 6.619527 -22.679221 9.819263 -7.492140 27.058927 -0.422297 -4.481200 2.610809 0.140030 -0.077560 0.177810 -6.474337 3.987682 -7.631797 37.090982 -9.651533 19.456291 -24.720943 -3.671554 12.228126 9.874897 -4.076754 -7.055548 -0.623476 1.421876 52.335142 -4.424800 -3.719970 -19.765820 -24.365401 -1.258697 1.731940 -46.623911 6.704472 -8.796468 -24.786177 -4.196728 -2.334108 -3.257201 2.808393 0.545140 -0.192430 0.210370 0.067790 5.151573 7.431522 5.949338 72.190180 49.891092 8.392298 -41.552627 50.215979 -25.312412 1.996722 -0.921869 0.020190 0.160430 -0.081750 -0.083580 
0.122840 17.115320 -10.587890 3.377651 18.346289 4.055315 -14.294241 11.959574 2.828991 6.748539 -1.750227 -23.109168 -3.071221 3.859660 11.991439 -0.650359 2.448585 3.601489 0.558610 0.421990 0.416690 18.915468 -12.395595 3.389298 -12.692943 7.324043 -23.594670 9.740862 -7.539065 28.771538 -0.438656 -4.645549 2.543186 0.174640 -0.086180 0.192250 -6.329302 3.851330 -7.725847 35.722227 -9.690517 22.751013 -21.673136 -3.370643 12.446390 9.684364 -3.343480 -7.166669 0.747386 1.154340 48.925539 -4.453030 -3.004830 -20.354280 -22.037723 -2.000073 2.439390 -45.783921 7.231967 -9.896069 -32.594711 -7.327525 -2.083155 -3.251728 2.962613 0.514250 -0.171330 0.204300 0.064580 3.763743 8.411512 4.816601 64.200145 52.832012 8.019567 -45.474560 42.246413 -24.376633 2.001307 -1.053804 0.036460 0.132320 -0.094990 -0.087920 
0.096760 17.104560 -10.669690 2.667100 17.725641 3.315718 -14.372081 12.111321 2.833458 7.131937 -1.362903 -23.491028 -2.782408 3.974812 12.607617 -0.663408 2.530096 3.556285 0.567460 0.446780 0.416150 18.821005 -12.288143 3.479814 -11.710670 8.100224 -23.918627 9.329410 -7.295317 29.866986 -0.444586 -4.691070 2.529744 0.199450 -0.067160 0.212750 -6.067522 3.522473 -7.815085 34.262236 -9.069695 27.124300 -18.046253 -2.203629 12.210894 9.618515 -2.397915 -7.327590 2.329868 0.628077 45.827387 -4.335140 -2.558960 -20.843800 -20.481183 -3.671992 3.497910 -44.134776 8.022399 -10.854342 -40.790359 -11.386148 -1.201802 -3.277478 3.087382 0.498240 -0.138010 0.196800 0.062480 2.861914 10.585110 3.090890 52.994320 53.069793 4.626022 -48.554563 34.006341 -22.945114 2.031961 -1.226338 0.036740 0.128850 -0.087340 -0.090820 
0.068490 17.087660 -10.763390 2.388986 17.433198 2.640210 -14.466608 12.232551 2.834327 7.101939 -1.099270 -24.583645 -2.411845 4.260051 14.468305 -0.687433 2.721609 3.493106 0.539130 0.415320 0.411480 18.723538 -12.130260 3.568908 -11.879083 8.826125 -24.105996 10.213882 -7.381169 30.279123 -0.431799 -4.797496 2.501702 0.212030 -0.008780 0.196980 -5.781629 3.153266 -7.891132 32.790063 -8.393774 31.494966 -15.267559 -0.712331 12.237089 9.516367 -1.648666 -7.717422 3.183291 0.265358 42.266468 -3.585980 -2.512980 -20.489130 -18.089603 -5.698556 4.708353 -42.066207 8.968934 -11.708876 -50.312610 -15.478840 0.262803 -3.332357 3.147282 0.485510 -0.094380 0.155750 0.051250 0.947715 13.412552 1.796586 41.605155 51.603359 -0.301466 -49.836943 25.584677 -20.644904 2.131532 -1.426088 -0.010790 0.174130 -0.061060 -0.103300 
0.046780 17.094760 -10.859820 0.960841 16.767081 1.514790 -14.554643 12.367883 2.778105 8.004221 -0.419054 -26.080054 -1.645058 4.588005 16.653652 -0.714792 2.984837 3.367160 0.549480 0.442370 0.409680 18.652446 -11.926594 3.631492 -11.048944 9.659073 -23.441653 11.425428 -7.331055 29.706630 -0.430249 -4.798408 2.515739 0.251990 0.029040 0.189420 -5.511567 2.724975 -7.917768 33.023969 -8.311060 35.729016 -13.784872 0.830140 13.225216 9.615420 -1.390765 -8.330524 2.911582 0.454835 38.612266 -2.120960 -2.532200 -21.284010 -15.081544 -7.868218 5.642630 -39.568737 9.121186 -12.199231 -60.204820 -18.623883 1.941730 -3.374951 3.209060 0.482480 -0.064830 0.134570 0.042990 -2.099858 16.314148 1.265442 30.930821 49.073806 -5.971000 -50.225202 18.168162 -18.100285 2.246011 -1.599360 -0.034990 0.213130 -0.040650 -0.109130 
0.015680 17.097080 -10.952610 -0.207457 15.891197 0.444474 -14.686487 12.575168 2.748859 8.946798 0.367685 -27.312806 -1.077070 4.877902 18.203462 -0.764921 3.255489 3.203608 0.616640 0.536990 0.429060 18.544167 -11.621903 3.658676 -10.330596 10.395230 -22.584567 12.739183 -7.210259 28.776367 -0.454877 -4.784052 2.493683 0.334250 0.033090 0.228160 -5.120751 1.984063 -7.916728 31.781774 -7.566470 40.568296 -11.357142 2.450191 13.700692 9.747256 -1.180866 -8.336173 2.643236 0.698245 34.522542 -0.952120 -2.285950 -23.044650 -12.089894 -8.465368 5.882288 -36.921800 8.948167 -11.963597 -69.624724 -21.159382 4.105175 -3.398448 3.316971 0.492040 -0.044210 0.149860 0.041110 -5.268745 17.722062 -0.298149 22.515521 46.117279 -9.039750 -47.756873 10.685388 -14.105884 2.365091 -1.738017 -0.026960 0.215260 -0.031600 -0.114810 
0.004500 17.088560 -11.032820 -1.742682 14.245243 -0.672385 -14.820930 12.857337 2.704968 9.795506 1.385944 -28.865034 0.397235 5.086215 20.256081 -0.758703 3.545694 3.060202 0.667040 0.618060 0.431800 18.437517 -11.311864 3.648889 -9.068477 10.917733 -21.240833 13.529064 -6.813007 27.335734 -0.452136 -4.655529 2.539106 0.401970 0.054810 0.236280 -4.709812 1.108924 -7.888992 30.672482 -6.564514 45.202734 -8.916659 4.436879 14.022968 9.564945 -1.635590 -8.643761 1.382021 0.604199 31.115929 -0.038460 -2.422510 -22.958080 -9.531644 -8.506012 6.159974 -34.287731 9.927104 -11.618490 -78.648401 -23.285074 6.570240 -3.380939 3.418525 0.465740 -0.021150 0.145480 0.064040 -7.785512 19.352427 -1.700488 14.680395 41.426020 -11.047769 -43.620810 5.145975 -10.294462 2.504436 -1.813054 -0.020570 0.230260 -0.043500 -0.100720 
-0.005690 17.078670 -11.100040 -3.132890 11.850882 -1.788799 -15.004215 13.272333 2.634629 11.048746 2.688248 -29.403328 1.418410 5.370462 21.183724 -0.778591 3.867844 2.939630 0.683850 0.658850 0.426370 18.290202 -10.876549 3.622354 -7.736227 11.439995 -19.783963 14.282639 -6.403697 26.030623 -0.430453 -4.532214 2.612367 0.464180 0.123620 0.205140 -4.155318 -0.202661 -7.850187 27.768126 -4.458012 50.100955 -4.694614 6.588349 14.239083 8.862341 -2.600188 -8.612140 -0.505052 0.281950 28.342835 0.452570 -2.905310 -22.570240 -7.272601 -7.365730 6.053122 -32.245500 10.776995 -10.543799 -87.312356 -24.197458 8.901256 -3.380980 3.442375 0.441520 0.021520 0.107060 0.080260 -9.260735 20.599572 -3.312530 6.343963 37.774060 -11.602803 -37.412238 1.007529 -6.990408 2.604987 -1.751463 -0.061830 0.315090 -0.032010 -0.093020 
